<svg width="209" height="207" viewBox="0 0 209 207" fill="none" xmlns="http://www.w3.org/2000/svg">
<rect y="0.363281" width="5.64865" height="5.64865" rx="1.34409" fill="white"/>
<rect x="22.5948" y="0.363281" width="5.64865" height="5.64865" rx="1.34409" fill="white"/>
<rect x="45.1893" y="0.363281" width="5.64865" height="5.64865" rx="1.34409" fill="white"/>
<rect x="67.7839" y="0.363281" width="5.64865" height="5.64865" rx="1.34409" fill="white"/>
<rect x="90.3784" y="0.363281" width="5.64865" height="5.64865" rx="1.34409" fill="white"/>
<rect x="112.973" y="0.363281" width="5.64865" height="5.64865" rx="1.34409" fill="white"/>
<rect x="135.568" y="0.363281" width="5.64865" height="5.64865" rx="1.34409" fill="white"/>
<rect x="158.163" y="0.363281" width="5.64865" height="5.64865" rx="1.34409" fill="white"/>
<rect x="180.757" y="0.363281" width="5.64865" height="5.64865" rx="1.34409" fill="white"/>
<rect x="203.351" y="0.363281" width="5.64865" height="5.64865" rx="1.34409" fill="white"/>
<rect y="22.958" width="5.64865" height="5.64865" rx="1.34409" fill="white"/>
<rect x="22.5948" y="22.958" width="5.64865" height="5.64865" rx="1.34409" fill="white"/>
<rect x="45.1893" y="22.958" width="5.64865" height="5.64865" rx="1.34409" fill="white"/>
<rect x="67.7839" y="22.958" width="5.64865" height="5.64865" rx="1.34409" fill="white"/>
<rect x="90.3784" y="22.958" width="5.64865" height="5.64865" rx="1.34409" fill="white"/>
<rect x="112.973" y="22.958" width="5.64865" height="5.64865" rx="1.34409" fill="white"/>
<rect x="135.568" y="22.958" width="5.64865" height="5.64865" rx="1.34409" fill="white"/>
<rect x="158.163" y="22.958" width="5.64865" height="5.64865" rx="1.34409" fill="white"/>
<rect x="180.757" y="22.958" width="5.64865" height="5.64865" rx="1.34409" fill="white"/>
<rect x="203.351" y="22.958" width="5.64865" height="5.64865" rx="1.34409" fill="white"/>
<rect y="45.5527" width="5.64865" height="5.64865" rx="1.34409" fill="white"/>
<rect x="22.5948" y="45.5527" width="5.64865" height="5.64865" rx="1.34409" fill="white"/>
<rect x="45.1893" y="45.5527" width="5.64865" height="5.64865" rx="1.34409" fill="white"/>
<rect x="67.7839" y="45.5527" width="5.64865" height="5.64865" rx="1.34409" fill="white"/>
<rect x="90.3784" y="45.5527" width="5.64865" height="5.64865" rx="1.34409" fill="white"/>
<rect x="112.973" y="45.5527" width="5.64865" height="5.64865" rx="1.34409" fill="white"/>
<rect x="135.568" y="45.5527" width="5.64865" height="5.64865" rx="1.34409" fill="white"/>
<rect x="158.163" y="45.5527" width="5.64865" height="5.64865" rx="1.34409" fill="white"/>
<rect x="180.757" y="45.5527" width="5.64865" height="5.64865" rx="1.34409" fill="white"/>
<rect x="203.351" y="45.5527" width="5.64865" height="5.64865" rx="1.34409" fill="white"/>
<rect y="68.1465" width="5.64865" height="5.64865" rx="1.34409" fill="white"/>
<rect x="22.5948" y="68.1465" width="5.64865" height="5.64865" rx="1.34409" fill="white"/>
<rect x="45.1893" y="68.1465" width="5.64865" height="5.64865" rx="1.34409" fill="white"/>
<rect x="67.7839" y="68.1465" width="5.64865" height="5.64865" rx="1.34409" fill="white"/>
<rect x="90.3784" y="68.1465" width="5.64865" height="5.64865" rx="1.34409" fill="white"/>
<rect x="112.973" y="68.1465" width="5.64865" height="5.64865" rx="1.34409" fill="white"/>
<rect x="135.568" y="68.1465" width="5.64865" height="5.64865" rx="1.34409" fill="white"/>
<rect x="158.163" y="68.1465" width="5.64865" height="5.64865" rx="1.34409" fill="white"/>
<rect x="180.757" y="68.1465" width="5.64865" height="5.64865" rx="1.34409" fill="white"/>
<rect x="203.351" y="68.1465" width="5.64865" height="5.64865" rx="1.34409" fill="white"/>
<rect y="90.7412" width="5.64865" height="5.64865" rx="1.34409" fill="white"/>
<rect x="22.5948" y="90.7412" width="5.64865" height="5.64865" rx="1.34409" fill="white"/>
<rect x="45.1893" y="90.7412" width="5.64865" height="5.64865" rx="1.34409" fill="white"/>
<rect x="67.7839" y="90.7412" width="5.64865" height="5.64865" rx="1.34409" fill="white"/>
<rect x="90.3784" y="90.7412" width="5.64865" height="5.64865" rx="1.34409" fill="white"/>
<rect x="112.973" y="90.7412" width="5.64865" height="5.64865" rx="1.34409" fill="white"/>
<rect x="135.568" y="90.7412" width="5.64865" height="5.64865" rx="1.34409" fill="white"/>
<rect x="158.163" y="90.7412" width="5.64865" height="5.64865" rx="1.34409" fill="white"/>
<rect x="180.757" y="90.7412" width="5.64865" height="5.64865" rx="1.34409" fill="white"/>
<rect x="203.351" y="90.7412" width="5.64865" height="5.64865" rx="1.34409" fill="white"/>
<rect y="113.337" width="5.64865" height="5.64865" rx="1.34409" fill="white"/>
<rect x="22.5948" y="113.337" width="5.64865" height="5.64865" rx="1.34409" fill="white"/>
<rect x="45.1893" y="113.337" width="5.64865" height="5.64865" rx="1.34409" fill="white"/>
<rect x="67.7839" y="113.337" width="5.64865" height="5.64865" rx="1.34409" fill="white"/>
<rect x="90.3784" y="113.337" width="5.64865" height="5.64865" rx="1.34409" fill="white"/>
<rect x="112.973" y="113.337" width="5.64865" height="5.64865" rx="1.34409" fill="white"/>
<rect x="135.568" y="113.337" width="5.64865" height="5.64865" rx="1.34409" fill="white"/>
<rect x="158.163" y="113.337" width="5.64865" height="5.64865" rx="1.34409" fill="white"/>
<rect x="180.757" y="113.337" width="5.64865" height="5.64865" rx="1.34409" fill="white"/>
<rect x="203.351" y="113.337" width="5.64865" height="5.64865" rx="1.34409" fill="white"/>
<rect y="135.931" width="5.64865" height="5.64865" rx="1.34409" fill="white"/>
<rect y="157.722" width="5.64865" height="5.64865" rx="1.34409" fill="white"/>
<rect y="179.514" width="5.64865" height="5.64865" rx="1.34409" fill="white"/>
<rect y="201.306" width="5.64865" height="5.64865" rx="1.34409" fill="white"/>
<rect x="22.5948" y="135.931" width="5.64865" height="5.64865" rx="1.34409" fill="white"/>
<rect x="22.5948" y="157.722" width="5.64865" height="5.64865" rx="1.34409" fill="white"/>
<rect x="22.5948" y="179.514" width="5.64865" height="5.64865" rx="1.34409" fill="white"/>
<rect x="22.5948" y="201.306" width="5.64865" height="5.64865" rx="1.34409" fill="white"/>
<rect x="45.1893" y="135.931" width="5.64865" height="5.64865" rx="1.34409" fill="white"/>
<rect x="45.1893" y="157.722" width="5.64865" height="5.64865" rx="1.34409" fill="white"/>
<rect x="45.1893" y="179.514" width="5.64865" height="5.64865" rx="1.34409" fill="white"/>
<rect x="45.1893" y="201.306" width="5.64865" height="5.64865" rx="1.34409" fill="white"/>
<rect x="67.7839" y="135.931" width="5.64865" height="5.64865" rx="1.34409" fill="white"/>
<rect x="67.7839" y="157.722" width="5.64865" height="5.64865" rx="1.34409" fill="white"/>
<rect x="67.7839" y="179.514" width="5.64865" height="5.64865" rx="1.34409" fill="white"/>
<rect x="67.7839" y="201.306" width="5.64865" height="5.64865" rx="1.34409" fill="white"/>
<rect x="90.3784" y="135.931" width="5.64865" height="5.64865" rx="1.34409" fill="white"/>
<rect x="90.3784" y="157.722" width="5.64865" height="5.64865" rx="1.34409" fill="white"/>
<rect x="90.3784" y="179.514" width="5.64865" height="5.64865" rx="1.34409" fill="white"/>
<rect x="90.3784" y="201.306" width="5.64865" height="5.64865" rx="1.34409" fill="white"/>
<rect x="112.973" y="135.931" width="5.64865" height="5.64865" rx="1.34409" fill="white"/>
<rect x="112.973" y="157.722" width="5.64865" height="5.64865" rx="1.34409" fill="white"/>
<rect x="112.973" y="179.514" width="5.64865" height="5.64865" rx="1.34409" fill="white"/>
<rect x="112.973" y="201.306" width="5.64865" height="5.64865" rx="1.34409" fill="white"/>
<rect x="135.568" y="135.931" width="5.64865" height="5.64865" rx="1.34409" fill="white"/>
<rect x="135.568" y="157.722" width="5.64865" height="5.64865" rx="1.34409" fill="white"/>
<rect x="135.568" y="179.514" width="5.64865" height="5.64865" rx="1.34409" fill="white"/>
<rect x="135.568" y="201.306" width="5.64865" height="5.64865" rx="1.34409" fill="white"/>
<rect x="158.163" y="135.931" width="5.64865" height="5.64865" rx="1.34409" fill="white"/>
<rect x="158.163" y="157.722" width="5.64865" height="5.64865" rx="1.34409" fill="white"/>
<rect x="158.163" y="179.514" width="5.64865" height="5.64865" rx="1.34409" fill="white"/>
<rect x="158.163" y="201.306" width="5.64865" height="5.64865" rx="1.34409" fill="white"/>
<rect x="180.757" y="135.931" width="5.64865" height="5.64865" rx="1.34409" fill="white"/>
<rect x="180.757" y="157.722" width="5.64865" height="5.64865" rx="1.34409" fill="white"/>
<rect x="180.757" y="179.514" width="5.64865" height="5.64865" rx="1.34409" fill="white"/>
<rect x="180.757" y="201.306" width="5.64865" height="5.64865" rx="1.34409" fill="white"/>
<rect x="203.351" y="135.931" width="5.64865" height="5.64865" rx="1.34409" fill="white"/>
<rect x="203.351" y="157.722" width="5.64865" height="5.64865" rx="1.34409" fill="white"/>
<rect x="203.351" y="179.514" width="5.64865" height="5.64865" rx="1.34409" fill="white"/>
<rect x="203.351" y="201.306" width="5.64865" height="5.64865" rx="1.34409" fill="white"/>
</svg>
